<?xml version="1.0" encoding="utf-8"?>
<!-- Generator: Adobe Illustrator 19.1.0, SVG Export Plug-In . SVG Version: 6.00 Build 0)  -->
<svg version="1.1" id="Layer_1" xmlns="http://www.w3.org/2000/svg" xmlns:xlink="http://www.w3.org/1999/xlink" x="0px" y="0px"
	 viewBox="0 0 100 100" enable-background="new 0 0 100 100" xml:space="preserve">
<g>
	<g>
		<path fill="#010101" d="M85.3,24.8L14.5,95.6c-0.2,0.2-0.5,0.4-0.8,0.5L2.7,99.9c-1.6,0.6-3.1-1-2.6-2.6l3.8-11.1
			c0.1-0.3,0.3-0.6,0.5-0.8l70.8-70.8c0.8-0.8,2.1-0.8,2.9,0l7.2,7.2C86.1,22.7,86.1,24,85.3,24.8z"/>
		<path fill="#010101" d="M99.4,10.7L92.2,18c-0.8,0.8-2.1,0.8-2.9,0L82,10.7c-0.8-0.8-0.8-2.1,0-2.9l7.2-7.2c0.8-0.8,2.1-0.8,2.9,0
			l7.2,7.2C100.2,8.6,100.2,9.9,99.4,10.7z"/>
	</g>
</g>
</svg>
